<svg xmlns="http://www.w3.org/2000/svg" width="760" height="720" viewBox="0 0 760 720">
<style><![CDATA[
svg { background:#091520; font-family:-apple-system,BlinkMacSystemFont,"Segoe UI","PingFang SC",sans-serif; }
.title { fill:#FFD966; font-size:25px; font-weight:700; } .sub { fill:#7AABBF; font-size:12px; letter-spacing:1.2px; }
.group { fill:#7AABBF; font-size:14px; letter-spacing:1.5px; font-weight:700; } .group-gold { fill:#F5C842; }
.no { fill:#7AABBF; font-size:17px; font-weight:700; } .layer-zh { fill:#EDF1F4; font-size:16px; font-weight:700; } .layer-en { fill:#7AABBF; font-size:9px; letter-spacing:1px; } .side { fill:#EDF1F4; font-size:12px; font-weight:700; }
]]></style>
<rect width="760" height="720" fill="#091520"/>
<text x="52" y="44" class="title">AI 产业生态 · 价值链分层</text>
<text x="52" y="68" class="sub">中美优势分布 · WHO LEADS EACH LAYER</text>
<line x1="88" y1="108" x2="88" y2="458" stroke="#3a6fd8" stroke-width="4" opacity=".55"/><text x="52" y="100" class="group">上游 · 资本密集 · 钱烧在这里</text>
<line x1="88" y1="462" x2="88" y2="636" stroke="#F5C842" stroke-width="4" opacity=".75"/><text x="52" y="492" class="group group-gold">下游 · 价值变现 · 钱要在这里赚回来</text>
<g><rect x="116" y="110" width="500" height="34" rx="8" fill="rgba(90,140,210,.10)" stroke="rgba(90,140,210,.35)"/><text x="138" y="133" class="no">1</text><text x="176" y="127" class="layer-zh">能源层</text><text x="176" y="139" class="layer-en">ENERGY</text><rect x="545" y="118" width="48" height="18" rx="9" fill="#d24b3e" opacity=".32" stroke="#d24b3e"/><text x="569" y="132" text-anchor="middle" class="side">中</text><rect x="116" y="154" width="500" height="34" rx="8" fill="rgba(90,140,210,.10)" stroke="rgba(90,140,210,.35)"/><text x="138" y="177" class="no">2</text><text x="176" y="171" class="layer-zh">芯片层</text><text x="176" y="183" class="layer-en">CHIP</text><rect x="545" y="162" width="48" height="18" rx="9" fill="#3a6fd8" opacity=".32" stroke="#3a6fd8"/><text x="569" y="176" text-anchor="middle" class="side">美</text><rect x="116" y="198" width="500" height="34" rx="8" fill="rgba(90,140,210,.10)" stroke="rgba(90,140,210,.35)"/><text x="138" y="221" class="no">3</text><text x="176" y="215" class="layer-zh">基础设施层</text><text x="176" y="227" class="layer-en">INFRASTRUCTURE</text><rect x="545" y="206" width="48" height="18" rx="9" fill="#3a6fd8" opacity=".32" stroke="#3a6fd8"/><text x="569" y="220" text-anchor="middle" class="side">美</text><rect x="116" y="242" width="500" height="34" rx="8" fill="rgba(90,140,210,.10)" stroke="rgba(90,140,210,.35)"/><text x="138" y="265" class="no">4</text><text x="176" y="259" class="layer-zh">大型语言模型</text><text x="176" y="271" class="layer-en">LLM</text><rect x="545" y="250" width="48" height="18" rx="9" fill="#3a6fd8" opacity=".32" stroke="#3a6fd8"/><text x="569" y="264" text-anchor="middle" class="side">美</text><rect x="116" y="286" width="500" height="34" rx="8" fill="rgba(90,140,210,.10)" stroke="rgba(90,140,210,.35)"/><text x="138" y="309" class="no">5</text><text x="176" y="303" class="layer-zh">上下文窗口</text><text x="176" y="315" class="layer-en">CONTEXT WINDOW</text><rect x="545" y="294" width="48" height="18" rx="9" fill="#3a6fd8" opacity=".32" stroke="#3a6fd8"/><text x="569" y="308" text-anchor="middle" class="side">美</text><rect x="116" y="330" width="500" height="34" rx="8" fill="rgba(90,140,210,.10)" stroke="rgba(90,140,210,.35)"/><text x="138" y="353" class="no">6</text><text x="176" y="347" class="layer-zh">长期存储</text><text x="176" y="359" class="layer-en">LONG-TERM STORAGE</text><rect x="545" y="338" width="48" height="18" rx="9" fill="#3a6fd8" opacity=".32" stroke="#3a6fd8"/><text x="569" y="352" text-anchor="middle" class="side">美</text><rect x="116" y="374" width="500" height="34" rx="8" fill="rgba(90,140,210,.10)" stroke="rgba(90,140,210,.35)"/><text x="138" y="397" class="no">7</text><text x="176" y="391" class="layer-zh">工具集成</text><text x="176" y="403" class="layer-en">TOOL INTEGRATIONS</text><rect x="545" y="382" width="48" height="18" rx="9" fill="#3a6fd8" opacity=".32" stroke="#3a6fd8"/><text x="569" y="396" text-anchor="middle" class="side">美</text><rect x="116" y="418" width="500" height="34" rx="8" fill="rgba(90,140,210,.10)" stroke="rgba(90,140,210,.35)"/><text x="138" y="441" class="no">8</text><text x="176" y="435" class="layer-zh">智能体框架</text><text x="176" y="447" class="layer-en">AGENT HARNESS</text><rect x="545" y="426" width="48" height="18" rx="9" fill="#9aa6b4" opacity=".32" stroke="#9aa6b4"/><text x="569" y="440" text-anchor="middle" class="side">中·美</text><rect x="116" y="462" width="500" height="34" rx="8" fill="rgba(245,200,66,.10)" stroke="rgba(245,200,66,.45)"/><text x="138" y="485" class="no">9</text><text x="176" y="479" class="layer-zh">智能体</text><text x="176" y="491" class="layer-en">AGENT</text><rect x="545" y="470" width="48" height="18" rx="9" fill="#9aa6b4" opacity=".32" stroke="#9aa6b4"/><text x="569" y="484" text-anchor="middle" class="side">中·美</text><rect x="116" y="506" width="500" height="34" rx="8" fill="rgba(245,200,66,.10)" stroke="rgba(245,200,66,.45)"/><text x="138" y="529" class="no">10</text><text x="176" y="523" class="layer-zh">AI Native 部门</text><text x="176" y="535" class="layer-en">AI NATIVE DEPARTMENT</text><rect x="545" y="514" width="48" height="18" rx="9" fill="#d24b3e" opacity=".32" stroke="#d24b3e"/><text x="569" y="528" text-anchor="middle" class="side">中</text><rect x="116" y="550" width="500" height="34" rx="8" fill="rgba(245,200,66,.10)" stroke="rgba(245,200,66,.45)"/><text x="138" y="573" class="no">11</text><text x="176" y="567" class="layer-zh">AI Native 公司</text><text x="176" y="579" class="layer-en">AI NATIVE COMPANY</text><rect x="545" y="558" width="48" height="18" rx="9" fill="#d24b3e" opacity=".32" stroke="#d24b3e"/><text x="569" y="572" text-anchor="middle" class="side">中</text><rect x="116" y="594" width="500" height="34" rx="8" fill="rgba(245,200,66,.10)" stroke="rgba(245,200,66,.45)"/><text x="138" y="617" class="no">12</text><text x="176" y="611" class="layer-zh">AI Native 经济生态</text><text x="176" y="623" class="layer-en">AI NATIVE ECONOMY</text><rect x="545" y="602" width="48" height="18" rx="9" fill="#d24b3e" opacity=".32" stroke="#d24b3e"/><text x="569" y="616" text-anchor="middle" class="side">中</text></g>
</svg>
